<svg xmlns:xlink="http://www.w3.org/1999/xlink" xmlns="http://www.w3.org/2000/svg" clip-rule="evenodd" fill-rule="evenodd" image-rendering="optimizeQuality" shape-rendering="geometricPrecision" text-rendering="geometricPrecision" viewBox="0 0 38.33 37.13" style="fill: rgb(0, 0, 0);" role="img" width="500"  height="484.3464649099922" ><g><path d="M16.22 25.09c-0.85,-4.99 0.11,-8.22 2.87,-9.7 2.76,1.48 3.72,4.71 2.87,9.7 2.9,1.61 4.36,3.44 4.37,5.49 -2.15,-0.33 -3.6,-0.5 -4.36,-0.51 0.32,2.87 1.62,5.22 3.9,7.05 5.8,-2.16 10.27,-7.06 11.85,-13.12 -1.13,-0.01 -2.17,-0.02 -3.08,-0.03 -2.55,-0.04 -4.13,-0.15 -4.13,-0.34 0,-0.18 1.58,-0.3 4.13,-0.34 0.96,-0.01 2.06,-0.03 3.26,-0.04 0.19,-0.87 0.32,-1.77 0.39,-2.68l-1.43 -0.02c-2.55,-0.04 -4.13,-0.15 -4.13,-0.34 0,-0.18 1.58,-0.3 4.13,-0.34l1.47 -0.02c0.01,-0.23 0.01,-0.46 0.01,-0.7 0,-0.67 -0.03,-1.32 -0.1,-1.97 -2.29,-0.01 -4.36,-0.03 -6.01,-0.05 -2.55,-0.04 -4.13,-0.15 -4.13,-0.34 0,-0.18 1.58,-0.3 4.13,-0.34 1.63,-0.02 3.66,-0.04 5.91,-0.05 -0.1,-0.73 -0.25,-1.44 -0.44,-2.15 -1.88,-0.01 -3.57,-0.03 -4.98,-0.05 -2.55,-0.04 -4.13,-0.15 -4.13,-0.34 0,-0.18 1.58,-0.3 4.13,-0.34 1.35,-0.02 2.96,-0.04 4.76,-0.05 -0.38,-1.24 -0.89,-2.43 -1.51,-3.55 -2.52,-0.01 -4.78,-0.03 -6.57,-0.05 -2.55,-0.04 -4.13,-0.15 -4.13,-0.34 0,-0.18 1.58,-0.3 4.13,-0.34 1.68,-0.03 3.78,-0.04 6.11,-0.05 -0.61,-0.99 -1.3,-1.92 -2.07,-2.78l-0.72 -0.01c-2.55,-0.04 -4.13,-0.15 -4.13,-0.34 0,-0.18 1.58,-0.3 4.13,-0.34l0.08 -0c-3.47,-3.52 -8.3,-5.7 -13.63,-5.7 -5.04,0 -9.62,1.94 -13.04,5.12 0.97,0.01 1.87,0.02 2.67,0.03 2.55,0.04 4.13,0.15 4.13,0.34 0,0.18 -1.58,0.3 -4.13,0.34 -1.01,0.02 -2.16,0.03 -3.43,0.04 -0.55,0.57 -1.06,1.16 -1.53,1.79 2.82,0.01 5.36,0.03 7.32,0.06 2.55,0.04 4.13,0.15 4.13,0.34 0,0.18 -1.58,0.3 -4.13,0.34 -2.1,0.03 -4.85,0.05 -7.89,0.06 -0.56,0.83 -1.06,1.71 -1.48,2.62 2.07,0.01 3.94,0.03 5.47,0.05 2.55,0.04 4.13,0.15 4.13,0.34 0,0.18 -1.58,0.3 -4.13,0.34 -1.61,0.02 -3.6,0.04 -5.81,0.05 -0.21,0.51 -0.4,1.03 -0.57,1.57 1.08,0.01 2.08,0.02 2.96,0.03 2.55,0.04 4.13,0.15 4.13,0.34 0,0.18 -1.58,0.3 -4.13,0.34 -0.94,0.01 -2.01,0.03 -3.17,0.04 -0.23,0.86 -0.41,1.74 -0.52,2.65 3.57,0 6.82,0.02 9.22,0.06 2.55,0.04 4.13,0.15 4.13,0.34 0,0.18 -1.58,0.3 -4.13,0.34 -2.42,0.04 -5.7,0.06 -9.3,0.06 -0.04,0.51 -0.06,1.03 -0.06,1.56 0,0.3 0.01,0.59 0.02,0.88 1.78,0.01 3.38,0.03 4.72,0.05 2.55,0.04 4.13,0.15 4.13,0.34 0,0.18 -1.58,0.3 -4.13,0.34 -1.33,0.02 -2.91,0.04 -4.67,0.05 0.12,1.38 0.38,2.72 0.78,4l0.67 0.01c2.55,0.04 4.13,0.15 4.13,0.34 0,0.18 -1.58,0.3 -4.13,0.34l-0.45 0.01c1.87,5.33 6.02,9.58 11.29,11.58 2.25,-1.82 3.54,-4.16 3.85,-7.01 -0.76,0.01 -2.21,0.17 -4.36,0.51 0.01,-2.04 1.46,-3.87 4.37,-5.49z" style="" fill="#CE6857"></path><path d="M19.09 19.99c0.66,0 1.2,-0.54 1.2,-1.2 0,-0.66 -0.54,-1.2 -1.2,-1.2 -0.66,0 -1.2,0.54 -1.2,1.2 0,0.66 0.54,1.2 1.2,1.2z" style="" fill="#E8CFC1"></path></g></svg>